<?xml version="1.0" encoding="utf-8"?>
<!-- Generator: Adobe Illustrator 27.5.0, SVG Export Plug-In . SVG Version: 6.00 Build 0)  -->
<svg version="1.1" id="Warstwa_1" xmlns="http://www.w3.org/2000/svg" xmlns:xlink="http://www.w3.org/1999/xlink" x="0px" y="0px"
	 viewBox="0 0 2258.6 719.1" style="enable-background:new 0 0 2258.6 719.1;" xml:space="preserve">
<g>
	<g>
		<path style="fill:#00CE7C;" d="M2258.7,0.5c-3.2-0.2-5.1-0.4-7-0.4c-87,0-174.1-0.6-261.1,0.4c-20.7,0.2-41.9,3.7-62,9.1
			c-133,36.1-201.5,181.3-141.1,301.9c41.9,83.5,113.2,123.7,205.5,125.2c85.1,1.5,170.2,0.3,255.3,0.3c3.3,0,6.6-0.4,10.1-0.6V339
			h-14.1c-83.6,0-167.2,0.5-250.8-0.2c-80.6-0.7-135.3-70.9-116.8-148.9c12.6-53.1,61.3-90.9,118.7-91.2
			c83.2-0.3,166.4-0.1,249.6-0.1h13.6V0.5z M0,9.2c2,4.2,2.8,6.3,3.8,8.2c74.6,134.4,149.3,268.8,223.8,403.4c3.2,5.8,6.8,8,13.4,8
			c33.6-0.3,67.2-0.6,100.8,0.1c10.2,0.2,15.4-3,20.3-11.9C434.9,285,508.2,153.2,581.3,21.5c2-3.6,3.7-7.2,6.2-12.3
			c-37.4,0-73.1,0.3-108.9-0.2c-8.8-0.1-13.4,2.4-17.7,10.3c-52.4,97-105.2,193.8-158,290.6c-2.3,4.2-4.8,8.4-8.1,14.2
			c-3.3-5.9-5.7-10.1-8.1-14.4c-53.2-97-106.4-194.1-159.7-291c-2.1-3.8-6.4-9.1-9.8-9.1C78.8,8.9,40.3,9.2,0,9.2 M1169.3,428.6
			c37.8,0,73.7-0.4,109.5,0.2c9.1,0.2,13.4-3.1,17.5-10.7c52.7-97.3,105.7-194.4,158.6-291.6c2.1-3.8,4.3-7.4,7.5-12.8
			c3.9,7,6.7,11.9,9.4,16.9c52.6,96,105.4,192,157.7,288.2c4,7.3,8.2,10.4,16.7,10c18.3-0.7,36.6-0.2,55-0.2h55.9
			c-1.8-3.9-2.7-6.3-3.9-8.5c-74.6-134.4-149.3-268.9-223.8-403.4c-3.3-5.9-7.1-7.7-13.5-7.6c-34.4,0.3-68.7,0.4-103.1-0.1
			c-8.5-0.1-12.7,2.9-16.7,10.1c-73.1,132.2-146.5,264.3-219.9,396.4C1174.3,419.1,1172.4,422.7,1169.3,428.6 M746.5,107.3h181.7
			v320.6h102.4v-321h181.3v-97H746.5V107.3z M588.9,223.2c0,27.2,0.4,53.1-0.2,78.9c-0.2,9.3,3,11.5,11.8,11.4
			c44.6-0.4,89.2-0.2,133.8-0.2c3.3,0,6.7-0.4,10.2-0.6v-89.5H588.9z M1463.2,279.8c-27.4,50.3-53.7,98.7-80.7,148.1h161.9
			C1517.2,378.3,1490.7,330,1463.2,279.8 M375.4,9.8H213.5c27.2,49.6,53.7,97.9,81.2,148.2C322.3,107.3,348.4,59.2,375.4,9.8"/>
		<path style="fill:#00CE7C;" d="M2258.7,0.5v98.2h-13.6c-83.2,0-166.4-0.2-249.6,0.1c-57.3,0.2-106.1,38.1-118.7,91.2
			c-18.5,77.9,36.2,148.2,116.8,148.9c83.6,0.7,167.2,0.2,250.8,0.2h14.1v97.5c-3.5,0.2-6.8,0.7-10.1,0.7
			c-85.1,0-170.3,1.2-255.3-0.3c-92.3-1.6-163.6-41.7-205.5-125.2c-60.4-120.6,8-265.8,141.1-301.9c20-5.4,41.3-8.9,62-9.1
			c87-1,174-0.4,261.1-0.4C2253.6,0.2,2255.5,0.4,2258.7,0.5"/>
		<path style="fill:#00CE7C;" d="M0,9.2c40.3,0,78.8-0.2,117.3,0.4c3.4,0.1,7.7,5.3,9.8,9.1c53.4,96.9,106.5,194,159.7,291
			c2.4,4.3,4.8,8.5,8.1,14.4c3.3-5.8,5.8-9.9,8.1-14.2c52.7-96.8,105.6-193.6,158-290.6c4.3-7.9,8.9-10.5,17.7-10.3
			c35.8,0.5,71.5,0.2,108.9,0.2c-2.6,5.1-4.3,8.8-6.3,12.3C508.2,153.2,434.9,285,362.1,416.9c-4.9,8.9-10.1,12.1-20.3,11.9
			c-33.6-0.7-67.2-0.4-100.8-0.1c-6.6,0.1-10.2-2.2-13.4-8C153.1,286.2,78.5,151.8,3.9,17.4C2.8,15.4,1.9,13.4,0,9.2"/>
		<path style="fill:#00CE7C;" d="M1169.3,428.6c3.1-5.8,4.9-9.5,7-13.1C1249.6,283.3,1323,151.3,1396.1,19c4-7.2,8.2-10.2,16.7-10.1
			c34.4,0.5,68.7,0.4,103.1,0.1c6.4,0,10.2,1.7,13.5,7.6c74.5,134.5,149.1,268.9,223.8,403.4c1.2,2.2,2.2,4.6,3.9,8.5h-55.9
			c-18.3,0-36.7-0.5-55,0.2c-8.5,0.3-12.7-2.7-16.7-10c-52.4-96.2-105.1-192.1-157.8-288.2c-2.7-5-5.5-9.9-9.4-16.9
			c-3.1,5.4-5.4,9-7.5,12.8c-52.9,97.2-105.9,194.3-158.6,291.6c-4.1,7.7-8.5,10.9-17.5,10.7C1243,428.2,1207.2,428.6,1169.3,428.6"
			/>
		<polygon style="fill:#00CE7C;" points="746.5,107.3 746.5,9.9 1211.9,9.9 1211.9,106.9 1030.6,106.9 1030.6,427.9 928.3,427.9 
			928.3,107.3 		"/>
		<path style="fill:#00CE7C;" d="M589,223.2h155.7v89.5c-3.6,0.2-6.9,0.6-10.2,0.6c-44.6,0-89.2-0.2-133.8,0.2
			c-8.8,0.1-12-2.1-11.8-11.4C589.3,276.3,589,250.4,589,223.2"/>
		<path style="fill:#00CE7C;" d="M1463.2,279.8c27.5,50.2,54,98.5,81.2,148.1h-161.9C1409.5,378.4,1435.8,330.1,1463.2,279.8"/>
		<path style="fill:#00CE7C;" d="M375.4,9.8c-26.9,49.5-53.1,97.5-80.6,148.2c-27.5-50.2-54-98.6-81.2-148.2H375.4z"/>
	</g>
	<g>
		<path style="fill:#002A3A;" d="M605.9,680.5h-19.7V564.5h19.7l37.5,92.4l37.5-92.4h20v116.1h-19.7v-35.7c0-5.8,0-10.7,0-14.7
			s0.1-7.3,0.2-10.1c0.1-2.8,0.2-5.2,0.3-7.3c0.1-2.1,0.3-4.2,0.6-6.4l-29.5,74.1H634l-29.4-74c0.5,3.5,0.9,7.9,1,13.4
			c0.2,5.4,0.2,11.7,0.2,19V680.5z"/>
		<path style="fill:#002A3A;" d="M758.8,682.6c-7.7,0-14.6-1.8-20.6-5.3c-6-3.5-10.7-8.4-14-14.6c-3.4-6.2-5.1-13.3-5.1-21.3
			c0-8.1,1.6-15.4,4.9-21.6s7.9-11.1,13.8-14.7c5.9-3.5,12.7-5.3,20.3-5.3c7.9,0,14.8,1.7,20.5,5c5.7,3.3,10.1,8,13.3,13.9
			c3.1,5.9,4.7,13,4.7,21.3v5.9l-67.3,0.2l0.3-12.4h47.8c0-5.4-1.7-9.7-5.2-13c-3.4-3.3-8.1-4.9-13.9-4.9c-4.5,0-8.4,1-11.5,2.8
			c-3.1,1.9-5.5,4.8-7.1,8.6c-1.6,3.8-2.4,8.5-2.4,14c0,8.5,1.8,14.9,5.5,19.2c3.7,4.3,9.1,6.5,16.3,6.5c5.3,0,9.7-1,13.1-3
			c3.4-2,5.7-4.9,6.7-8.6h17.9c-1.7,8.6-5.9,15.3-12.6,20.2C777.6,680.2,769.1,682.6,758.8,682.6z"/>
		<path style="fill:#002A3A;" d="M834.9,682.6c-8.3,0-14.8-2.2-19.6-6.8c-4.8-4.5-7.2-10.4-7.2-17.7c0-7.2,2.5-12.9,7.5-17.2
			c5-4.3,12.2-6.8,21.5-7.5l23.5-1.9v-1.7c0-3.6-0.7-6.5-2-8.7c-1.3-2.2-3.2-3.8-5.6-4.8c-2.4-1-5.3-1.5-8.6-1.5
			c-5.7,0-10.1,1.1-13.2,3.4c-3.1,2.3-4.6,5.5-4.6,9.6h-16.5c0-5.7,1.5-10.7,4.4-14.8c2.9-4.2,7-7.4,12.4-9.8
			c5.4-2.3,11.5-3.5,18.5-3.5c7.1,0,13.2,1.2,18.3,3.7c5.1,2.5,9,6.2,11.8,11.1c2.7,4.9,4.1,11,4.1,18.3v47.6h-17l-1.4-11.6
			c-1.7,4-4.9,7.3-9.8,9.8C846.5,681.3,841,682.6,834.9,682.6z M841.1,668c6,0,10.8-1.7,14.4-5.1c3.5-3.4,5.3-8.1,5.3-14.1v-4.1
			l-16.4,1.3c-6,0.5-10.3,1.8-12.9,3.7c-2.5,2-3.8,4.5-3.8,7.7c0,3.5,1.2,6.1,3.5,8C833.6,667.1,836.8,668,841.1,668z"/>
		<path style="fill:#002A3A;" d="M917.9,680.5h-19.4v-78.4h17.9l1.6,10.2c2.4-3.9,5.9-7,10.4-9.2c4.5-2.2,9.4-3.3,14.7-3.3
			c9.8,0,17.3,2.9,22.3,8.7c5,5.8,7.5,13.8,7.5,23.8v48.3h-19.4v-43.7c0-6.6-1.5-11.4-4.4-14.7c-3-3.2-7-4.9-12.1-4.9
			c-6,0-10.7,1.9-14.1,5.7c-3.4,3.8-5.1,8.9-5.1,15.2V680.5z"/>
		<path style="fill:#002A3A;" d="M1001.6,586.4c-3.3,0-6.1-1.1-8.3-3.4s-3.4-5.1-3.4-8.3s1.1-6,3.4-8.2c2.3-2.2,5.1-3.3,8.3-3.3
			s6.1,1.1,8.3,3.3c2.3,2.2,3.4,5,3.4,8.2s-1.1,6.1-3.4,8.3C1007.6,585.3,1004.9,586.4,1001.6,586.4z M992.1,680.5v-78.4h19.4v78.4
			H992.1z"/>
		<path style="fill:#002A3A;" d="M1050.8,680.5h-19.4v-78.4h17.9l1.6,10.2c2.4-3.9,5.9-7,10.4-9.2c4.5-2.2,9.4-3.3,14.7-3.3
			c9.8,0,17.3,2.9,22.3,8.7c5,5.8,7.5,13.8,7.5,23.8v48.3h-19.4v-43.7c0-6.6-1.5-11.4-4.4-14.7c-3-3.2-7-4.9-12.1-4.9
			c-6,0-10.7,1.9-14.1,5.7c-3.4,3.8-5.1,8.9-5.1,15.2V680.5z"/>
		<path style="fill:#002A3A;" d="M1120.5,639.6c0-7.6,1.6-14.4,4.7-20.4c3.1-6,7.5-10.7,13.1-14.2c5.6-3.5,12.1-5.2,19.5-5.2
			c6.7,0,12.4,1.5,17.2,4.4s8.1,7,10,12.2l-2.1,1.7l1.6-15.9h17.9v74.5c0,8.7-1.7,16.2-5,22.6c-3.3,6.4-8,11.3-14.1,14.8
			s-13.4,5.2-22,5.2c-11.2,0-20.4-3-27.6-9.1s-11.4-14.3-12.7-24.8h19.4c0.6,5.1,2.8,9,6.4,11.9c3.7,2.9,8.5,4.3,14.5,4.3
			c6.7,0,12-1.9,16-5.8c4-3.9,6-9.1,6-15.6v-19.5l2.2,2.1c-1.9,5-5.4,9-10.5,11.9c-5.1,3-11,4.4-17.6,4.4c-7.4,0-13.9-1.7-19.4-5.1
			c-5.5-3.4-9.8-8-12.9-14C1122,654,1120.5,647.2,1120.5,639.6z M1140,639.1c0,4.4,0.9,8.4,2.6,11.8s4.2,6.2,7.4,8.2
			c3.2,2,6.9,3,11.1,3c4.4,0,8.3-1,11.5-2.9c3.2-1.9,5.7-4.7,7.5-8.1c1.7-3.4,2.6-7.4,2.6-12c0-4.6-0.8-8.5-2.5-11.8
			c-1.7-3.3-4.2-5.9-7.4-7.9c-3.2-1.9-7.1-2.8-11.7-2.8c-4.3,0-8.1,1-11.3,2.9c-3.2,2-5.6,4.6-7.3,8
			C1140.9,630.9,1140,634.8,1140,639.1z"/>
		<path style="fill:#002A3A;" d="M1214.7,602.1h49.2v16.2h-49.2V602.1z M1264,563.2v16.5c-1.1,0-2.2,0-3.3,0c-1.1,0-2.2,0-3.4,0
			c-4.9,0-8.1,1.2-9.8,3.5c-1.6,2.3-2.5,5.4-2.5,9.4v88h-19.2v-88c0-7.2,1.2-13,3.5-17.4c2.3-4.4,5.6-7.6,9.8-9.7
			c4.2-2.1,9.2-3.1,14.8-3.1c1.6,0,3.2,0.1,5,0.2C1260.8,562.7,1262.5,562.9,1264,563.2z"/>
		<path style="fill:#002A3A;" d="M1329.5,602.1h19.4v78.4h-17.9l-1.4-10.5c-2.3,3.7-5.8,6.7-10.5,9.1c-4.7,2.3-9.6,3.5-14.9,3.5
			c-9,0-16-2.8-21.1-8.6c-5.1-5.7-7.6-13.3-7.6-22.9v-49.1h19.4v42.2c0,7.4,1.4,12.8,4.3,16c2.9,3.3,7,4.9,12.4,4.9
			c6.1,0,10.7-1.8,13.6-5.5c3-3.7,4.4-9.2,4.4-16.6V602.1z"/>
		<path style="fill:#002A3A;" d="M1388.4,680.5h-19.2V562.4h19.2V680.5z"/>
		<path style="fill:#002A3A;" d="M1474.7,564.5v116.1h-20.3V564.5H1474.7z"/>
		<path style="fill:#002A3A;" d="M1517,680.5h-19.4v-78.4h17.9l1.6,10.2c2.4-3.9,5.9-7,10.4-9.2c4.5-2.2,9.4-3.3,14.7-3.3
			c9.8,0,17.3,2.9,22.3,8.7c5,5.8,7.5,13.8,7.5,23.8v48.3h-19.4v-43.7c0-6.6-1.5-11.4-4.4-14.7c-3-3.2-7-4.9-12.1-4.9
			c-6,0-10.7,1.9-14.1,5.7c-3.4,3.8-5.1,8.9-5.1,15.2V680.5z"/>
		<path style="fill:#002A3A;" d="M1610.5,680.5h-19.4v-78.4h17.9l1.6,10.2c2.4-3.9,5.9-7,10.4-9.2c4.5-2.2,9.4-3.3,14.7-3.3
			c9.8,0,17.3,2.9,22.3,8.7c5,5.8,7.5,13.8,7.5,23.8v48.3h-19.4v-43.7c0-6.6-1.5-11.4-4.4-14.7c-3-3.2-7-4.9-12.1-4.9
			c-6,0-10.7,1.9-14.1,5.7c-3.4,3.8-5.1,8.9-5.1,15.2V680.5z"/>
		<path style="fill:#002A3A;" d="M1680,641.2c0-8.1,1.8-15.3,5.4-21.5c3.6-6.2,8.6-11,14.9-14.5c6.4-3.5,13.5-5.2,21.6-5.2
			c8.1,0,15.4,1.7,21.7,5.2c6.3,3.5,11.3,8.3,14.9,14.5c3.6,6.2,5.4,13.4,5.4,21.5c0,8.1-1.8,15.3-5.4,21.5
			c-3.6,6.2-8.6,11-14.9,14.5c-6.3,3.5-13.5,5.2-21.7,5.2c-8,0-15.2-1.7-21.6-5.2s-11.3-8.3-14.9-14.5
			C1681.8,656.5,1680,649.3,1680,641.2z M1699.4,641.2c0,4.8,1,8.9,2.9,12.5c2,3.6,4.6,6.4,7.9,8.4c3.3,2,7.2,3,11.7,3
			c4.4,0,8.4-1,11.8-3c3.4-2,6-4.8,7.9-8.4c1.9-3.6,2.9-7.8,2.9-12.5c0-4.9-1-9.1-2.9-12.6c-1.9-3.6-4.5-6.3-7.9-8.3
			c-3.4-2-7.3-3-11.8-3c-4.4,0-8.3,1-11.7,3c-3.3,2-6,4.8-7.9,8.3C1700.4,632.1,1699.4,636.3,1699.4,641.2z"/>
		<path style="fill:#002A3A;" d="M1797.7,680.5l-31.1-78.4h20.6l13.7,36c1.7,4.7,3.2,8.9,4.4,12.8c1.2,3.9,2.1,6.9,2.6,9
			c0.5-2.4,1.5-5.6,2.8-9.4c1.3-3.9,2.8-8,4.5-12.3l14.3-36h20l-32.7,78.4H1797.7z"/>
		<path style="fill:#002A3A;" d="M1879.9,682.6c-8.3,0-14.8-2.2-19.6-6.8c-4.8-4.5-7.2-10.4-7.2-17.7c0-7.2,2.5-12.9,7.5-17.2
			c5-4.3,12.2-6.8,21.5-7.5l23.5-1.9v-1.7c0-3.6-0.7-6.5-2-8.7c-1.3-2.2-3.2-3.8-5.6-4.8c-2.4-1-5.3-1.5-8.6-1.5
			c-5.7,0-10.1,1.1-13.2,3.4c-3.1,2.3-4.6,5.5-4.6,9.6h-16.5c0-5.7,1.5-10.7,4.4-14.8c2.9-4.2,7-7.4,12.4-9.8
			c5.4-2.3,11.5-3.5,18.5-3.5c7.1,0,13.2,1.2,18.3,3.7c5.1,2.5,9,6.2,11.8,11.1c2.7,4.9,4.1,11,4.1,18.3v47.6h-17l-1.4-11.6
			c-1.7,4-4.9,7.3-9.8,9.8C1891.5,681.3,1886,682.6,1879.9,682.6z M1886.1,668c6,0,10.8-1.7,14.4-5.1c3.5-3.4,5.3-8.1,5.3-14.1v-4.1
			l-16.4,1.3c-6,0.5-10.3,1.8-12.9,3.7c-2.5,2-3.8,4.5-3.8,7.7c0,3.5,1.2,6.1,3.5,8C1878.6,667.1,1881.9,668,1886.1,668z"/>
		<path style="fill:#002A3A;" d="M1935.2,602.1h49.5v16.2h-49.5V602.1z M1969.6,680.5h-19.4V577.7h19.4V680.5z"/>
		<path style="fill:#002A3A;" d="M2006.5,586.4c-3.3,0-6.1-1.1-8.3-3.4s-3.4-5.1-3.4-8.3s1.1-6,3.4-8.2c2.3-2.2,5.1-3.3,8.3-3.3
			s6.1,1.1,8.3,3.3c2.3,2.2,3.4,5,3.4,8.2s-1.1,6.1-3.4,8.3S2009.7,586.4,2006.5,586.4z M1996.9,680.5v-78.4h19.4v78.4H1996.9z"/>
		<path style="fill:#002A3A;" d="M2031.7,641.2c0-8.1,1.8-15.3,5.4-21.5c3.6-6.2,8.6-11,14.9-14.5c6.4-3.5,13.5-5.2,21.6-5.2
			c8.1,0,15.4,1.7,21.7,5.2c6.3,3.5,11.3,8.3,14.9,14.5c3.6,6.2,5.4,13.4,5.4,21.5c0,8.1-1.8,15.3-5.4,21.5
			c-3.6,6.2-8.6,11-14.9,14.5c-6.3,3.5-13.5,5.2-21.7,5.2c-8,0-15.2-1.7-21.6-5.2c-6.4-3.5-11.3-8.3-14.9-14.5
			C2033.5,656.5,2031.7,649.3,2031.7,641.2z M2051.1,641.2c0,4.8,1,8.9,2.9,12.5c2,3.6,4.6,6.4,7.9,8.4c3.3,2,7.2,3,11.7,3
			c4.4,0,8.4-1,11.8-3c3.4-2,6-4.8,7.9-8.4c1.9-3.6,2.9-7.8,2.9-12.5c0-4.9-1-9.1-2.9-12.6s-4.5-6.3-7.9-8.3c-3.4-2-7.3-3-11.8-3
			c-4.4,0-8.3,1-11.7,3c-3.3,2-6,4.8-7.9,8.3C2052,632.1,2051.1,636.3,2051.1,641.2z"/>
		<path style="fill:#002A3A;" d="M2150.3,680.5h-19.4v-78.4h17.9l1.6,10.2c2.4-3.9,5.9-7,10.4-9.2c4.5-2.2,9.4-3.3,14.7-3.3
			c9.8,0,17.3,2.9,22.3,8.7c5,5.8,7.5,13.8,7.5,23.8v48.3H2186v-43.7c0-6.6-1.5-11.4-4.4-14.7c-3-3.2-7-4.9-12.1-4.9
			c-6,0-10.7,1.9-14.1,5.7c-3.4,3.8-5.1,8.9-5.1,15.2V680.5z"/>
		<path style="fill:#002A3A;" d="M2237.5,682.4c-3.5,0-6.5-1.2-9.1-3.7s-3.8-5.4-3.8-8.9s1.3-6.5,3.8-9c2.5-2.5,5.6-3.7,9.1-3.7
			s6.5,1.3,9.1,3.7c2.5,2.5,3.8,5.5,3.8,9s-1.3,6.5-3.8,8.9C2244,681.2,2241,682.4,2237.5,682.4z"/>
	</g>
</g>
<g>
</g>
<g>
</g>
<g>
</g>
<g>
</g>
<g>
</g>
<g>
</g>
</svg>
